<?xml version="1.0" standalone="no"?>
<!DOCTYPE svg PUBLIC "-//W3C//DTD SVG 20010904//EN"
 "http://www.w3.org/TR/2001/REC-SVG-20010904/DTD/svg10.dtd">
<svg version="1.0" xmlns="http://www.w3.org/2000/svg"
 width="900.000000pt" height="900.000000pt" viewBox="0 0 900.000000 900.000000"
 preserveAspectRatio="xMidYMid meet">
<metadata>
Created by potrace 1.11, written by Peter Selinger 2001-2013
</metadata>
<g transform="translate(0.000000,900.000000) scale(0.100000,-0.100000)"
fill="#000000" stroke="none">
<path d="M5576 8434 c-157 -31 -307 -94 -453 -190 -153 -101 -244 -230 -350
-495 -108 -270 -152 -477 -160 -764 -8 -255 13 -427 74 -635 34 -114 43 -314
19 -410 -47 -189 -153 -320 -361 -449 -325 -201 -754 -496 -895 -615 -47 -39
-119 -95 -162 -125 -117 -80 -252 -197 -369 -318 -113 -118 -179 -215 -354
-523 -48 -85 -118 -202 -155 -260 -96 -150 -160 -265 -191 -345 -15 -38 -33
-73 -41 -77 -7 -4 -69 -16 -138 -28 -188 -32 -346 -69 -430 -100 -41 -16 -160
-47 -265 -71 -404 -90 -591 -157 -550 -198 12 -12 154 -42 330 -71 209 -35
550 -36 855 -3 l55 5 -65 -42 c-198 -130 -370 -292 -370 -348 0 -64 53 -95
160 -95 58 1 79 -3 95 -17 47 -41 165 -57 294 -41 47 6 86 9 88 7 2 -2 -45
-102 -104 -222 -117 -237 -183 -394 -209 -495 -20 -80 -116 -253 -201 -358
-44 -56 -97 -105 -176 -164 -129 -96 -266 -211 -286 -239 -19 -27 -6 -34 32
-16 18 8 46 13 64 11 36 -6 163 37 263 87 l61 31 -24 -43 c-14 -24 -23 -49
-20 -55 8 -22 63 -14 147 21 45 19 136 53 203 75 67 22 157 57 200 79 l78 38
128 -8 c163 -10 422 17 536 56 40 14 95 29 122 32 27 4 52 10 54 14 6 9 113 4
225 -11 41 -6 124 -14 184 -19 59 -5 116 -12 125 -15 29 -9 323 -9 329 1 4 5
50 10 102 10 96 1 231 27 405 78 44 13 101 24 127 25 26 1 67 8 90 16 24 8 79
21 123 28 89 17 223 75 273 120 10 10 22 17 26 17 9 0 153 108 158 118 2 5 35
30 73 57 136 96 352 261 475 364 265 221 418 377 554 564 34 47 101 133 149
193 106 131 250 345 343 509 282 499 412 1018 364 1450 -39 348 -191 766 -430
1180 -145 251 -271 594 -273 741 -1 120 80 227 228 300 l73 36 54 -26 c136
-66 361 -57 713 29 181 44 294 78 361 110 30 14 85 35 122 46 37 12 69 23 71
25 6 6 -67 129 -125 210 -221 308 -521 555 -899 738 -120 58 -264 115 -365
143 -44 12 -95 38 -158 80 -181 123 -375 205 -574 244 -118 23 -346 25 -452 3z"/>
<path d="M5232 1298 c-16 -16 -15 -28 3 -28 8 0 15 2 15 4 0 2 3 11 6 20 7 19
-7 21 -24 4z"/>
</g>
</svg>
